<svg width="15" height="16" viewBox="0 0 15 16" fill="none" xmlns="http://www.w3.org/2000/svg">
<path d="M6.875 1.86914H5.625C2.5 1.86914 1.25 3.11914 1.25 6.24414V9.99414C1.25 13.1191 2.5 14.3691 5.625 14.3691H9.375C12.5 14.3691 13.75 13.1191 13.75 9.99414V8.74414" stroke="#0C3BAA" stroke-width="1.5" stroke-linecap="round" stroke-linejoin="round"/>
<path d="M10.0252 2.50643L5.10017 7.43143C4.91267 7.61893 4.72517 7.98768 4.68767 8.25643L4.41892 10.1377C4.31892 10.8189 4.80017 11.2939 5.48142 11.2002L7.36267 10.9314C7.62517 10.8939 7.99392 10.7064 8.18767 10.5189L13.1127 5.59393C13.9627 4.74393 14.3627 3.75643 13.1127 2.50643C11.8627 1.25643 10.8752 1.65643 10.0252 2.50643Z" stroke="#0C3BAA" stroke-width="1.5" stroke-miterlimit="10" stroke-linecap="round" stroke-linejoin="round"/>
<path d="M9.31885 3.21289C9.7376 4.70664 10.9063 5.87539 12.4063 6.30039" stroke="#0C3BAA" stroke-width="1.5" stroke-miterlimit="10" stroke-linecap="round" stroke-linejoin="round"/>
</svg>
